<svg xmlns="http://www.w3.org/2000/svg" width="612" height="792" viewBox="0 0 612 792"><rect width="612" height="792" fill="#fffdfb"/><rect x="22" y="22" width="568" height="748" rx="12" fill="none" stroke="#c7aa72" stroke-width="1.4"/><rect x="31" y="31" width="550" height="730" rx="9" fill="none" stroke="#e5cddd"/><g fill="#f5dbe5"><circle cx="65" cy="80" r="30"/><circle cx="547" cy="712" r="30"/></g><g fill="#e8dff1"><circle cx="547" cy="80" r="25"/><circle cx="65" cy="712" r="25"/></g><g fill="#bf9b58"><path d="M306 89a35 35 0 1 0 19 63 37 37 0 0 1-19-63Z"/><path d="m109 104 3 9 9 3-9 3-3 9-3-9-9-3 9-3Zm394 0 3 9 9 3-9 3-3 9-3-9-9-3 9-3ZM306 664l4 12 12 4-12 4-4 12-4-12-12-4 12-4Z"/><circle cx="166" cy="157" r="2"/><circle cx="446" cy="157" r="2"/><circle cx="142" cy="635" r="2"/><circle cx="470" cy="635" r="2"/></g><path d="M84 202v390M528 202v390" stroke="#eee1ea"/><path d="M220 618h172" stroke="#c7aa72"/><text x="306" y="328" text-anchor="middle" fill="#765c85" font-family="Georgia,serif" font-size="36">My Celestial</text><text x="306" y="376" text-anchor="middle" fill="#765c85" font-family="Georgia,serif" font-size="42" font-style="italic">Journal</text><text x="306" y="424" text-anchor="middle" fill="#94734a" font-family="Georgia,serif" font-size="14">Daily, moon &amp; tarot reflections</text></svg>